<?xml version="1.0" encoding="UTF-8" standalone="no"?>
<svg width="518px" height="137px" viewBox="0 0 518 137" version="1.1" xmlns="http://www.w3.org/2000/svg" xmlns:xlink="http://www.w3.org/1999/xlink" xmlns:sketch="http://www.bohemiancoding.com/sketch/ns">
    <!-- Generator: Sketch 3.0.4 (8053) - http://www.bohemiancoding.com/sketch -->
    <title>p 2</title>
    <desc>Created with Sketch.</desc>
    <defs></defs>
    <g id="Page-1" stroke="none" stroke-width="1" fill="none" fill-rule="evenodd" sketch:type="MSPage">
        <g id="prepair-3-+-Oval-17" sketch:type="MSLayerGroup" fill="#05334E">
            <path d="M138.224,46.312 C142.448021,36.2319496 148.783958,31.192 157.232,31.192 C158.864008,31.192 160.927988,31.5279966 163.424,32.2 L163.136,49.192 C160.447987,48.6159971 157.808013,48.328 155.216,48.328 C143.887943,48.328 138.224,56.1519218 138.224,71.8 L138.224,102.472 L121.232,102.472 L121.232,32.344 L138.224,32.344 L138.224,46.312 Z M235.352,51.496 C236.552006,55.5280202 237.152,59.2239832 237.152,62.584 C237.152,65.9440168 236.960002,68.9679866 236.576,71.656 L191.36,71.656 C191.552001,77.3200283 192.943987,81.9279822 195.536,85.48 C198.128013,89.0320178 202.063974,90.808 207.344,90.808 C214.352035,90.808 218.527993,87.7360307 219.872,81.592 L237.008,81.592 C235.855994,88.600035 232.640026,94.1199798 227.36,98.152 C221.887973,102.376021 215.216039,104.488 207.344,104.488 C198.127954,104.488 190.400031,101.128034 184.16,94.408 C177.727968,87.399965 174.512,78.4240547 174.512,67.48 C174.512,56.2479438 177.727968,47.2240341 184.16,40.408 C190.304031,33.8799674 198.031953,30.616 207.344,30.616 C217.040048,30.616 224.575973,34.0239659 229.952,40.84 C232.352012,43.9120154 234.151994,47.4639798 235.352,51.496 Z M207.488,44.152 C202.687976,44.152 198.944013,45.7119844 196.256,48.832 C193.567987,51.9520156 191.984002,55.9599755 191.504,60.856 L221.312,60.856 C221.312,53.2719621 218.912024,48.184013 214.112,45.592 C212.287991,44.6319952 210.080013,44.152 207.488,44.152 Z M273.008,41.992 C277.424022,34.4079621 284.143955,30.616 293.168,30.616 C301.808043,30.616 309.199969,33.8799674 315.344,40.408 C321.872033,47.3200346 325.136,56.3439443 325.136,67.48 C325.136,78.7120562 321.824033,87.7839654 315.2,94.696 C309.055969,101.224033 301.712043,104.488 293.168,104.488 C284.623957,104.488 278.38402,101.944025 274.448,96.856 L274.448,136.6 L257.456,136.6 L257.456,32.488 L271.424,32.488 L273.008,41.992 Z M290.144,89.08 C292.16001,89.08 294.247989,88.6480043 296.408,87.784 C298.568011,86.9199957 300.511991,85.5760091 302.24,83.752 C306.080019,79.7199798 308,74.3200338 308,67.552 C308,60.7839662 306.344017,55.4800192 303.032,51.64 C299.719983,47.7999808 295.688024,45.88 290.936,45.88 C286.183976,45.88 282.296015,47.2479863 279.272,49.984 C276.247985,52.7200137 274.640001,56.6319746 274.448,61.72 L274.448,74.248 C274.448,78.7600226 276.031984,82.4079861 279.2,85.192 C282.176015,87.784013 285.823978,89.08 290.144,89.08 Z M368.336,61.576 C373.904028,61.576 380.335964,62.4879909 387.632,64.312 L387.632,57.4 C387.632,52.5039755 386.64801,48.8800118 384.68,46.528 C382.71199,44.1759882 379.496022,43 375.032,43 C370.567978,43 367.136012,43.8879911 364.736,45.664 C362.335988,47.4400089 361.136,49.9599837 361.136,53.224 L342.56,53.224 C342.56,45.2559602 345.367972,39.4960178 350.984,35.944 C356.600028,32.3919822 364.44795,30.616 374.528,30.616 C388.928072,30.616 398.239979,35.6559496 402.464,45.736 C403.904007,49.1920173 404.624,53.2719765 404.624,57.976 L404.624,102.472 L389.792,102.472 L388.496,93.112 C383.983977,100.696038 377.072047,104.488 367.76,104.488 C358.735955,104.488 351.728025,102.280022 346.736,97.864 C342.127977,93.6399789 339.824,88.2880324 339.824,81.808 C339.824,75.3279676 342.367975,70.3360175 347.456,66.832 C352.544025,63.3279825 359.503956,61.576 368.336,61.576 Z M387.632,75.112 C381.967972,73.5759923 376.688024,72.808 371.792,72.808 C362.575954,72.808 357.968,75.8799693 357.968,82.024 C357.968,84.616013 359.023989,86.8479906 361.136,88.72 C363.248011,90.5920094 366.631977,91.528 371.288,91.528 C375.944023,91.528 379.783985,89.9680156 382.808,86.848 C385.832015,83.7279844 387.439999,79.8160235 387.632,75.112 Z M430.832,32.344 L447.824,32.344 L447.824,102.472 L430.832,102.472 L430.832,32.344 Z M428.816,9.88 C428.816,6.80798464 429.727991,4.38400888 431.552,2.608 C433.376009,0.83199112 435.967983,-0.056 439.328,-0.056 C442.592016,-0.056 445.159991,0.83199112 447.032,2.608 C448.904009,4.38400888 449.84,6.80798464 449.84,9.88 C449.84,12.9520154 448.904009,15.3759911 447.032,17.152 C445.159991,18.9280089 442.592016,19.816 439.328,19.816 C435.967983,19.816 433.376009,18.9280089 431.552,17.152 C429.727991,15.3759911 428.816,12.9520154 428.816,9.88 L428.816,9.88 Z M493.616,46.312 C497.840021,36.2319496 504.175958,31.192 512.624,31.192 C514.256008,31.192 516.319988,31.5279966 518.816,32.2 L518.528,49.192 C515.839987,48.6159971 513.200013,48.328 510.608,48.328 C499.279943,48.328 493.616,56.1519218 493.616,71.8 L493.616,102.472 L476.624,102.472 L476.624,32.344 L493.616,32.344 L493.616,46.312 Z" id="prepair-3" sketch:type="MSShapeGroup"></path>
            <path d="M11.5276709,101.36719 C4.90678314,92.285724 1,81.0991011 1,69 C1,38.6243388 25.6243388,14 56,14 C86.1258346,14 110.594562,38.2209555 110.995013,68.2516977 C110.592727,98.557022 85.9008452,123 55.5,123 C51.6929761,123 47.9754798,122.616687 44.384,121.886549 L44.384,97.384 C48.3200197,102.472025 54.5599573,105.016 63.104,105.016 C71.6480427,105.016 78.9919693,101.752033 85.136,95.224 C91.7600331,88.3119654 95.072,79.2400562 95.072,68.008 C95.072,56.8719443 91.8080326,47.8480346 85.28,40.936 C79.1359693,34.4079674 71.7440432,31.144 63.104,31.144 C54.0799549,31.144 47.3600221,34.9359621 42.944,42.52 L41.36,33.016 L27.392,33.016 L27.392,115.366207 C21.2480305,111.750553 15.8614433,106.985737 11.5276709,101.36719 Z M60.08,89.608 C62.0960101,89.608 64.1839892,89.1760043 66.344,88.312 C68.5040108,87.4479957 70.4479914,86.1040091 72.176,84.28 C76.0160192,80.2479798 77.936,74.8480338 77.936,68.08 C77.936,61.3119662 76.2800166,56.0080192 72.968,52.168 C69.6559834,48.3279808 65.6240238,46.408 60.872,46.408 C56.1199762,46.408 52.2320151,47.7759863 49.208,50.512 C46.1839849,53.2480137 44.576001,57.1599746 44.384,62.248 L44.384,74.776 C44.384,79.2880226 45.9679842,82.9359861 49.136,85.72 C52.1120149,88.312013 55.7599784,89.608 60.08,89.608 Z" id="Oval-17" sketch:type="MSShapeGroup"></path>
        </g>
    </g>
</svg>